<?xml version="1.0" encoding="UTF-8"?>
<svg width="20px" height="16px" viewBox="0 0 20 16" version="1.1" xmlns="http://www.w3.org/2000/svg" xmlns:xlink="http://www.w3.org/1999/xlink">
    <!-- Generator: Sketch 53 (72520) - https://sketchapp.com -->
    <title>eye</title>
    <desc>Created with Sketch.</desc>
    <g id="Symbols" stroke="none" stroke-width="1" fill="none" fill-rule="evenodd">
        <g id="ICON" transform="translate(-5.000000, -8.000000)" fill="#C7C7CC" fill-rule="nonzero">
            <path d="M15,20.5 C15.2708347,20.5 15.5416653,20.4687503 15.8125,20.40625 L17.4375,21.6875 C16.5833291,21.8958344 15.7708372,22 15,22 C13.1041572,22 11.3645913,21.4947967 9.78125,20.484375 C8.19790875,19.4739533 6.96875437,18.135425 6.09375,16.46875 C6.03124969,16.3229159 6,16.1666675 6,16 C6,15.8333325 6.03124969,15.6770841 6.09375,15.53125 C6.38541813,14.9895806 6.77083094,14.4166697 7.25,13.8125 L10.53125,16.34375 C10.5937503,17.1145872 10.828123,17.8177052 11.234375,18.453125 C11.640627,19.0885448 12.17708,19.5885398 12.84375,19.953125 C13.51042,20.3177102 14.2291628,20.5 15,20.5 Z M24.8125,22.3125 C24.9375006,22.4166672 25,22.5520825 25,22.71875 C25,22.8229172 24.9687503,22.9270828 24.90625,23.03125 L24.28125,23.8125 C24.1770828,23.9375006 24.0416675,24 23.875,24 C23.7708328,24 23.6770838,23.9687503 23.59375,23.90625 L5.1875,9.6875 C5.06249937,9.58333281 5,9.4479175 5,9.28125 C5,9.17708281 5.03124969,9.07291719 5.09375,8.96875 L5.71875,8.1875 C5.82291719,8.06249937 5.9583325,8 6.125,8 C6.22916719,8 6.32291625,8.03124969 6.40625,8.09375 L10.40625,11.1875 C10.7812519,10.9583322 11.2447889,10.7552092 11.796875,10.578125 C12.3489611,10.4010408 12.9114555,10.2604172 13.484375,10.15625 C14.0572945,10.0520828 14.5624978,10 15,10 C16.8958428,10 18.6354087,10.5052033 20.21875,11.515625 C21.8020913,12.5260467 23.0312456,13.864575 23.90625,15.53125 C23.9687503,15.6770841 24,15.8333325 24,16 C24,16.1666675 23.9687503,16.3229159 23.90625,16.46875 C23.6354153,16.9687525 23.2500025,17.5312469 22.75,18.15625 C22.2499975,18.7812531 21.7812522,19.2812481 21.34375,19.65625 L24.8125,22.3125 Z M19.0625,17.875 C19.3541681,17.2708303 19.5,16.6458366 19.5,16 C19.5,14.7499937 19.0625044,13.6875044 18.1875,12.8125 C17.3124956,11.9374956 16.2500062,11.5 15,11.5 C14.5624978,11.5 14.0625028,11.5989573 13.5,11.796875 C12.9374972,11.9947927 12.489585,12.2395819 12.15625,12.53125 L14.4375,14.3125 C14.4791669,14.2083328 14.5,14.1041672 14.5,14 C14.5,13.666665 14.4062509,13.3750013 14.21875,13.125 C14.4895847,13.0416663 14.7604153,13 15.03125,13 C15.8437541,13 16.5416637,13.2916638 17.125,13.875 C17.7083363,14.4583363 18,15.1562459 18,15.96875 C18,15.96875 18,15.9791666 18,16 C18,16.3125016 17.9479172,16.6249984 17.84375,16.9375 L19.0625,17.875 Z" id="eye"></path>
        </g>
    </g>
</svg>